# AST/ASF file generated using VICON BodyLanguage
# -----------------------------------------------
:version 1.10
:name VICON
:units
  mass 1.0
  length 0.45
  angle deg
:documentation
   .ast/.asf automatically generated from VICON data using
   VICON BodyBuilder and BodyLanguage model FoxedUp or BRILLIANT.MOD
:root
   order TX TY TZ RX RY RZ
   axis XYZ
   position 0 0 0  
   orientation 0 0 0 
:bonedata
  begin
     id 1 
     name lhipjoint
     direction 0.603808 -0.713975 0.35448 
     length 2.2025 
     axis 0 0 0  XYZ
  end
  begin
     id 2 
     name lfemur
     direction 0.34202 -0.939693 0  
     length 6.55877  
     axis 0 0 20  XYZ
    dof rx ry rz
    limits (-160.0 20.0)
           (-70.0 70.0)
           (-60.0 70.0)
  end
  begin
     id 3 
     name ltibia
     direction 0.34202 -0.939693 0   
     length 6.80302   
     axis 0 0 20   XYZ
    dof rx
    limits (-10.0 170.0)
  end
  begin
     id 4 
     name lfoot
     direction 0.091848 -0.25235 0.963267   
     length 2.03446   
     axis -90 7.62852e-016 20   XYZ
    dof rx rz
    limits (-45.0 90.0)
           (-70.0 20.0)
  end
  begin
     id 5 
     name ltoes
     direction 1.53608e-011 -4.21925e-011 1   
     length 1.02033   
     axis -90 7.62852e-016 20   XYZ
    dof rx
    limits (-90.0 20.0)
  end
  begin
     id 6 
     name rhipjoint
     direction -0.587285 -0.724947 0.359928   
     length 2.16916  
     axis 0 0 0  XYZ 
  end
  begin
     id 7 
     name rfemur
     direction -0.34202 -0.939693 0   
     length 6.43173   
     axis 0 0 -20   XYZ
    dof rx ry rz
    limits (-160.0 20.0)
           (-70.0 70.0)
           (-70.0 60.0)
  end
  begin
     id 8 
     name rtibia
     direction -0.34202 -0.939693 0   
     length 6.70662   
     axis 0 0 -20   XYZ
    dof rx
    limits (-10.0 170.0)
 end
 begin
     id 9 
     name rfoot
     direction -0.11854 -0.325686 0.938018   
     length 2.0773  
     axis -90 -7.62852e-016 -20   XYZ
    dof rx rz
    limits (-45.0 90.0)
           (-20.0 70.0)
  end
  begin
     id 10 
     name rtoes
     direction -1.53547e-011 -4.21838e-011 1   
     length 1.03267   
     axis -90 -7.62852e-016 -20   XYZ
    dof rx
    limits (-90.0 20.0)
  end
  begin
     id 11 
     name lowerback
     direction -0.0286554 0.999539 0.0100613   
     length 2.08751   
     axis 0 0 0   XYZ
    dof rx ry rz
    limits (-20.0 45.0)
           (-30.0 30.0)
           (-30.0 30.0)
  end
  begin
     id 12 
     name upperback
     direction 0.0227093 0.999705 -0.00860929   
     length 2.08517   
     axis 0 0 0   XYZ
    dof rx ry rz
    limits (-20.0 45.0)
           (-30.0 30.0)
           (-30.0 30.0)
  end
  begin
     id 13 
     name thorax
     direction 0.0351627 0.999285 -0.013892   
     length 2.08412   
     axis 0 0 0   XYZ
    dof rx ry rz
    limits (-20.0 45.0)
           (-30.0 30.0)
           (-30.0 30.0)
  end
  begin
     id 14 
     name lowerneck
     direction -0.0696283 0.997344 0.0213922   
     length 1.44164   
     axis 0 0 0   XYZ
    dof rx ry rz
    limits (-20.0 45.0)
           (-30.0 30.0)
           (-30.0 30.0)
  end
  begin
     id 15 
     name upperneck
     direction 0.0531 0.990412 -0.127531   
     length 1.45022   
     axis 0 0 0   XYZ
    dof rx ry rz
    limits (-20.0 45.0)
           (-30.0 30.0)
           (-30.0 30.0)
  end
  begin
     id 16
     name head
     direction 0.0188154 0.998548 -0.0504727  
     length 1.45845  
     axis 0 0 0   XYZ
    dof rx ry rz
    limits (-20.0 45.0)
           (-30.0 30.0)
           (-30.0 30.0)
  end
  begin
     id 17 
     name lclavicle
     direction 0.961559 0.260051 0.088188  
     length 2.86057  
     axis 0 0 0   XYZ
    dof ry rz
    limits (-20.0 10.0)
           (0.0 20.0)
  end
  begin
     id 18 
     name lhumerus
     direction 1 -4.48959e-011 2.88185e-027   
     length 4.36901   
     axis 180 -30 -90   XYZ
    dof rx ry rz
    limits (-60.0 90.0)
           (-90.0 90.0)
           (-90.0 90.0)
  end
  begin
     id 19
     name lradius
     direction 1 -4.48965e-011 -3.92618e-028   
     length 3.21737   
     axis 180 -30 -90   XYZ
    dof rx
    limits (-10.0 170.0)
  end
  begin
     id 20
     name lwrist
     direction 1 -4.49037e-011 2.57246e-027   
     length 1.60869   
     axis -1.61769e-015 90 90   XYZ
    dof ry
    limits (-180.0 0.0)
 end
  begin
     id 21 
     name lhand
     direction 1 -4.48807e-011 5.12958e-027   
     length 0.564313   
     axis -3.27988e-015 90 90   XYZ
    dof rx rz
    limits (-90.0 90.0)
           (-45.0 45.0)
  end
  begin
     id 22 
     name lfingers
     direction 1 -4.48879e-011 1.02687e-026   
     length 0.454963   
     axis -6.5598e-015 90 90   XYZ
    dof rx
    limits (0.0 90.0)
  end
  begin
     id 23
     name lthumb
     direction 0.707107 -6.3475e-011 0.707107   
     length 0.653239   
     axis -90 45 2.19363e-014   XYZ
    dof rx rz
    limits (-45.0 45.0)
           (-45.0 45.0)
  end
  begin
     id 24 
     name rclavicle
     direction -0.954677 0.253915 0.155304   
     length 3.11497  
     axis 0 0 0   XYZ 
    dof ry rz
    limits (-10.0 20.0)
           (-20.0 0.0)
  end
  begin
     id 25 
     name rhumerus
     direction -1 -4.48958e-011 -8.20169e-028  
     length 4.34118   
     axis 180 30 90   XYZ
    dof rx ry rz
    limits (-90.0 60.0)
           (-90.0 90.0)
           (-90.0 90.0)
  end
  begin
     id 26 
     name rradius
     direction -1 -4.48978e-011 1.5676e-027   
     length 3.09531   
     axis 180 30 90   XYZ
    dof rx
    limits (-10.0 170.0)
  end
  begin
     id 27 
     name rwrist
     direction -1 -4.49001e-011 2.57123e-027   
     length 1.54765   
     axis -1.61769e-015 -90 -90   XYZ
    dof ry
    limits (-180.0 0.0)
  end
  begin
     id 28
     name rhand
     direction -1 -4.48847e-011 5.13225e-027   
     length 0.597446   
     axis -3.27988e-015 -90 -90   XYZ
    dof rx rz
    limits (-90.0 90.0)
           (-45.0 45.0)
  end
  begin
     id 29
     name rfingers
     direction -1 -4.49094e-011 1.02974e-026   
     length 0.481677   
     axis -6.5598e-015 -90 -90   XYZ
    dof rx
    limits (0.0 90.0)
  end
  begin
     id 30
     name rthumb
     direction -0.707107 -6.34859e-011 0.707107   
     length 0.691594   
     axis -90 -45 -2.19363e-014   XYZ
    dof rx rz
    limits (-45.0 45.0)
           (-45.0 45.0)
  end
:hierarchy
  begin
    root lhipjoint rhipjoint lowerback
    lhipjoint lfemur
    lfemur ltibia
    ltibia lfoot
    lfoot ltoes
    rhipjoint rfemur
    rfemur rtibia
    rtibia rfoot
    rfoot rtoes
    lowerback upperback
    upperback thorax
    thorax lowerneck lclavicle rclavicle
    lowerneck upperneck
    upperneck head
    lclavicle lhumerus
    lhumerus lradius
    lradius lwrist
    lwrist lhand lthumb
    lhand lfingers
    rclavicle rhumerus
    rhumerus rradius
    rradius rwrist
    rwrist rhand rthumb
    rhand rfingers
  end

#!OML:ASF I:\Acrobat_Osman\acrobat\cartwheel_test 2\Patient 1\Session 1\acrobat.ASF
:FULLY-SPECIFIED
:DEGREES
64
root 5.00573 15.7101 -7.68206 -41.4913 -78.6517 51.0291
lowerback -0.411698 -12.9791 -8.08856
upperback 3.36933 -17.2553 0.94566
thorax 6.41597 -8.92152 3.84401
lowerneck -6.54236 8.43487 2.48071
upperneck -0.607788 11.1995 -12.2075
head 1.90193 5.30216 -3.9817
rclavicle 1.39149e-014 -1.44119e-014
rhumerus -57.608 -8.59779 -44.9622
rradius 103.528
rwrist -1.16655
rhand -26.0791 45.0055
rfingers 7.12502
rthumb 0.469304 15.0263
lclavicle 1.39149e-014 -1.44119e-014
lhumerus 9.40072 -52.3595 79.1754
lradius 115.332
lwrist 14.0335
lhand -11.5909 31.8342
lfingers 7.12502
lthumb 14.4512 61.311
rfemur -30.3526 19.0837 8.26209
rtibia 33.5379
rfoot -13.4905 15.4038
rtoes -3.60684
lfemur 13.8213 9.17775 -20.0934
ltibia 23.3627
lfoot 11.5622 -4.24912
ltoes 8.41312
65
root 4.98943 15.7095 -7.70671 -45.937 -78.7942 55.4039
lowerback -0.084355 -13.2285 -8.86812
upperback 3.10439 -17.6288 1.45879
thorax 6.41615 -9.15039 4.75007
lowerneck -6.42898 8.38758 2.24411
upperneck -0.517835 11.1549 -12.6967
head 1.92995 5.2602 -4.11707
rclavicle 9.8709e-014 2.62147e-014
rhumerus -59.4689 -9.87804 -44.9522
rradius 103.467
rwrist -1.49703
rhand -25.9998 44.7264
rfingers 7.12502
rthumb 0.545903 14.7473
lclavicle 9.8709e-014 2.62147e-014
lhumerus 8.72318 -52.5536 80.8979
lradius 115.381
lwrist 13.267
lhand -11.2973 31.8616
lfingers 7.12502
lthumb 14.7341 61.318
rfemur -30.3659 19.2759 7.94224
rtibia 33.6067
rfoot -13.5004 15.4383
rtoes -4.14769
lfemur 14.0389 8.50522 -20.5927
ltibia 22.9739
lfoot 12.6277 -5.92093
ltoes 11.8252
66
root 4.97281 15.7136 -7.73076 -49.4895 -78.7595 59.0526
lowerback -0.161302 -13.2617 -9.16299
upperback 2.9523 -17.6649 1.52809
thorax 6.41487 -9.17561 4.94666
lowerneck -6.50712 8.19052 2.77707
upperneck -0.150423 10.9032 -13.4391
head 1.94488 5.08961 -4.01778
rclavicle -9.18385e-014 1.22253e-014
rhumerus -61.4105 -11.0057 -45.3703
rradius 103.28
rwrist -1.3037
rhand -25.4529 44.7703
rfingers 7.12502
rthumb 1.07418 14.7932
lclavicle -9.18385e-014 1.22253e-014
lhumerus 7.43115 -53.6981 82.6592
lradius 115.768
lwrist 12.5577
lhand -11.4197 32.58
lfingers 7.12502
lthumb 14.6162 62.0449
rfemur -30.5195 19.2887 7.58176
rtibia 33.6422
rfoot -13.6474 15.2548
rtoes -5.45669
lfemur 14.0956 7.93894 -21.002
ltibia 22.5239
lfoot 12.9133 -6.7234
ltoes 11.4471
67
root 4.95606 15.7225 -7.74871 -51.3876 -78.5297 61.0416
lowerback -0.23317 -13.334 -9.23772
upperback 2.80824 -17.7534 1.52758
thorax 6.33688 -9.21343 4.96873
lowerneck -6.60768 8.08359 3.5423
upperneck 0.161591 10.7591 -13.8965
head 2.11253 4.99282 -4.2707
rclavicle -6.96989e-014 2.8128e-014
rhumerus -62.4237 -11.2547 -46.2189
rradius 102.857
rwrist -0.147418
rhand -24.409 45.0111
rfingers 7.12502
rthumb 2.08238 15.0415
lclavicle -6.96989e-014 2.8128e-014
lhumerus 5.86064 -54.7487 84.7256
lradius 115.88
lwrist 12.1024
lhand -11.7298 32.7465
lfingers 7.12502
lthumb 14.3173 62.2328
rfemur -30.5564 18.9499 7.28472
rtibia 33.6357
rfoot -13.8339 15.1236
rtoes -6.5396
lfemur 14.1052 7.47067 -21.2526
ltibia 22.1056
lfoot 13.3185 -7.32764
ltoes 11.4571
68
root 4.94093 15.7349 -7.76468 -51.9692 -78.2245 61.6704
lowerback -0.169647 -13.5691 -9.34323
upperback 2.60528 -18.081 1.70487
thorax 6.23315 -9.37552 5.17868
lowerneck -6.62554 8.14357 3.8777
upperneck 0.307755 10.8429 -14.1126
head 2.19811 5.02337 -4.37839
rclavicle -1.24191e-013 2.40529e-014
rhumerus -62.081 -10.4798 -47.3305
rradius 102.272
rwrist 2.04259
rhand -23.3418 45.2656
rfingers 7.12502
rthumb 3.11306 15.3086
lclavicle -1.24191e-013 2.40529e-014
lhumerus 4.06076 -54.9827 86.7998
lradius 116.067
lwrist 12.1349
lhand -11.9258 32.4334
lfingers 7.12502
lthumb 14.1285 61.933
rfemur -30.4432 18.6497 7.02308
rtibia 33.5568
rfoot -14.0635 14.9035
rtoes -6.99254
lfemur 14.0656 7.12554 -21.3374
ltibia 21.7987
lfoot 14.204 -8.06169
ltoes 13.8358
69
root 4.93215 15.7508 -7.78358 -51.6747 -77.9862 61.5021
lowerback -0.145109 -13.8814 -9.33216
upperback 2.35889 -18.5136 1.97054
thorax 6.11958 -9.58582 5.40021
lowerneck -6.57822 8.29336 3.91541
upperneck 0.319289 11.0469 -14.1206
head 2.21459 5.1259 -4.37481
rclavicle 3.77691e-015 -1.45113e-014
rhumerus -60.866 -8.93323 -48.4558
rradius 101.774
rwrist 4.72934
rhand -22.1295 45.6684
rfingers 7.12502
rthumb 4.28374 15.7317
lclavicle 3.77691e-015 -1.45113e-014
lhumerus 1.73625 -54.6789 88.8592
lradius 116.663
lwrist 12.4511
lhand -11.8646 32.2187
lfingers 7.12502
lthumb 14.1875 61.7142
rfemur -30.3612 18.7717 6.74858
rtibia 33.3937
rfoot -14.387 14.1609
rtoes -7.4666
lfemur 13.7995 6.76044 -21.2726
ltibia 21.6557
lfoot 15.1154 -8.12209
ltoes 17.062
70
root 4.92706 15.7644 -7.80049 -50.8588 -77.7022 60.7977
lowerback -0.247736 -13.9765 -9.04592
upperback 2.23511 -18.6342 1.9755
thorax 5.97314 -9.62504 5.25271
lowerneck -6.5593 8.27845 4.23882
upperneck 0.33451 11.012 -14.0505
head 2.22608 5.11607 -4.40692
rclavicle -2.42517e-014 -3.77691e-015
rhumerus -59.6759 -7.54708 -49.4828
rradius 101.442
rwrist 7.26063
rhand -21.0565 46.3201
rfingers 7.12502
rthumb 5.31977 16.4068
lclavicle -2.42517e-014 -3.77691e-015
lhumerus -0.876089 -54.7889 90.6403
lradius 117.59
lwrist 12.7958
lhand -11.4689 32.0562
lfingers 7.12502
lthumb 14.5688 61.5246
rfemur -30.2151 18.9338 6.45607
rtibia 33.1777
rfoot -14.8031 13.0939
rtoes -8.44371
lfemur 13.4661 6.40699 -21.2076
ltibia 21.6956
lfoot 15.7782 -8.05652
ltoes 19.8544
71
root 4.92555 15.7734 -7.81606 -49.3201 -77.229 59.2469
lowerback -0.422023 -13.7126 -8.55076
upperback 2.35794 -18.2564 1.62697
thorax 5.85749 -9.40837 4.70197
lowerneck -6.88453 7.97297 4.8728
upperneck 0.519 10.5746 -13.7226
head 2.30695 4.90092 -4.42131
rclavicle -1.80894e-014 -1.35174e-014
rhumerus -58.815 -7.10154 -50.4668
rradius 101.234
rwrist 8.99748
rhand -20.6614 46.6279
rfingers 7.12502
rthumb 5.70123 16.7246
lclavicle -1.80894e-014 -1.35174e-014
lhumerus -3.0402 -55.6942 91.6667
lradius 118.533
lwrist 12.9359
lhand -10.5709 32.0764
lfingers 7.12502
lthumb 15.4338 61.4802
rfemur -29.8964 18.7739 6.20259
rtibia 32.9234
rfoot -15.2421 12.0017
rtoes -9.73508
lfemur 13.1905 6.20577 -21.1215
ltibia 21.9053
lfoot 16.2954 -8.50444
ltoes 21.0644
72
root 4.92901 15.7804 -7.83154 -47.0035 -76.5333 56.8962
lowerback -0.554406 -13.456 -7.99426
upperback 2.48185 -17.8967 1.29099
thorax 5.71901 -9.2003 4.14049
lowerneck -7.38219 7.69226 5.08813
upperneck 0.685274 10.1796 -13.2565
head 2.38353 4.70107 -4.32126
rclavicle 2.67664e-013 -5.88403e-014
rhumerus -57.5585 -6.60573 -51.3644
rradius 101.176
rwrist 9.27765
rhand -20.465 46.3447
rfingers 7.12502
rthumb 5.89093 16.4466
lclavicle 2.67664e-013 -5.88403e-014
lhumerus -3.89644 -56.283 92.3683
lradius 118.188
lwrist 12.6995
lhand -9.43868 32.1269
lfingers 7.12502
lthumb 16.5241 61.4433
rfemur -29.5091 18.3938 5.9107
rtibia 32.654
rfoot -15.7274 10.8074
rtoes -11.4302
lfemur 12.8583 5.98828 -21.0361
ltibia 22.2145
lfoot 16.7668 -8.93741
ltoes 21.6352
73
root 4.935 15.7891 -7.84764 -44.2149 -75.6919 54.0759
lowerback -0.502822 -13.4395 -7.50628
upperback 2.3751 -17.8842 1.25545
thorax 5.41166 -9.16772 3.92506
lowerneck -7.59941 7.59134 4.31245
upperneck 0.65376 10.077 -12.6863
head 2.32701 4.65524 -4.02857
rclavicle -5.47652e-014 1.98785e-015
rhumerus -55.5333 -5.09396 -51.9508
rradius 101.173
rwrist 8.35003
rhand -20.6824 45.8357
rfingers 7.12502
rthumb 5.68102 15.9318
lclavicle -5.47652e-014 1.98785e-015
lhumerus -5.20018 -55.8627 93.1725
lradius 118.029
lwrist 12.3896
lhand -9.30739 32.3128
lfingers 7.12502
lthumb 16.6505 61.6186
rfemur -29.0502 18.0481 5.5837
rtibia 32.3542
rfoot -16.3279 9.42431
rtoes -13.2887
lfemur 12.4652 5.70969 -20.9071
ltibia 22.5975
lfoot 17.0995 -9.11085
ltoes 22.3324
